<?xml version="1.0" encoding="UTF-8"?>
<svg xmlns="http://www.w3.org/2000/svg" viewBox="0 0 626 501">
  <defs>
    <style>
      .cls-1 {
        fill: none;
        stroke: #aedbdc;
        stroke-miterlimit: 10;
        stroke-width: 7px;
      }
    </style>
  </defs>
  <g id="Capa_2" data-name="Capa 2">
    <path class="cls-1" d="M108.62,236.27s-35.04-32.85,4.38-73.72c0,0,8.03-64.23,69.34-53.28,0,0,16.79-32.12,62.77-18.25,0,0,42.34-39.07,84.67-3.48,0,0,22.63-6.01,23.36,2.75,0,0,29.2-11.68,39.42,16.79,0,0,54.74-6.03,54.01,47.35,0,0,51.09,3.75,35.04,54.84,0,0,18.25,11.68,15.33,32.12,0,0,24.09,4.38,3.65,41.61,0,0,9.49,27.01-5.84,27.74,0,0,4.38,35.04-37.23,37.96,0,0-26.28,66.42-91.24,37.23,0,0,7.3,37.23-15.33,40.15s-34.31-11.68-32.12-35.77-29.93-58.39-39.42-49.64-105.84-2.92-102.19-50.36c0,0-2.22.99-5.86,2.11-12.94,3.98-43.81,9.67-56.91-21.09-16.79-39.42-5.84-35.04-5.84-35.04Z"/>
  </g>
  <g id="Capa_3" data-name="Capa 3">
    <path class="cls-1" d="M177.23,290.28s-8.76-50.36,34.31-52.55c0,0,14.6-25.55,59.85-7.3,0,0,27.01-32.85,65.69-14.6"/>
    <path class="cls-1" d="M176.5,282.98s-41.6-5.84-37.22-21.9-2.19-20.44-2.19-20.44c-51.82-17.52-8.76-47.45-8.76-47.45-10.22-49.64,29.2-43.07,29.2-43.07,0,0-8.76-41.61,51.82-32.12,0,0,27.01-18.98,40.15-8.76"/>
    <path class="cls-1" d="M283.14,339.25s-3.71-16.72,94.1,0,80.29,9.42,80.29,9.42"/>
    <path class="cls-1" d="M366.28,385.9s-14.6,4.38-29.2-10.22c0,0-23.36,2.44-14.6-25.42,0,0-14.61,3.4-13.87-18.43"/>
    <path class="cls-1" d="M430.45,347.7s14.67-2.67,16.13-26.76c0,0,24.82,13.87,48.18-10.22"/>
    <path class="cls-1" d="M245.85,300.5s2.19,15.33,28.47,10.22c0,0,16.06,15.64,45.26-4.59,0,0,4.38-9.35,29.93,2.36,0,0,21.17-16.09,46.72,0"/>
    <path class="cls-1" d="M496.94,241.38s-11.68,1.46-10.95,9.12c0,0-6.57-6.38-18.98-.45s-16.06,5.93-16.06,5.93"/>
    <path class="cls-1" d="M392.56,107.07s13.14,38.69-38.69,57.66c0,0-21.9,21.9,12.41,26.28"/>
  </g>
</svg>